<?xml version="1.0" encoding="utf-8"?>
<!-- Generator: Adobe Illustrator 16.0.0, SVG Export Plug-In . SVG Version: 6.00 Build 0)  -->
<!DOCTYPE svg PUBLIC "-//W3C//DTD SVG 1.1//EN" "http://www.w3.org/Graphics/SVG/1.1/DTD/svg11.dtd">
<svg version="1.1" id="Layer_1" xmlns="http://www.w3.org/2000/svg" xmlns:xlink="http://www.w3.org/1999/xlink" x="0px" y="0px"
	 width="48px" height="48px" viewBox="0 0 48 48" enable-background="new 0 0 48 48" xml:space="preserve">
<path fill="none" stroke="#000000" stroke-width="4" stroke-miterlimit="10" d="M31.625,24.291c0,4.292-3.477,7.782-7.774,7.782
	c-4.3,0-7.781-3.49-7.781-7.782c0-4.303,3.481-7.777,7.781-7.777C28.148,16.514,31.625,19.988,31.625,24.291z"/>
<path fill="none" stroke="#000000" stroke-width="4" stroke-miterlimit="10" d="M47.881,29.37c0,3.004-2.435,5.443-5.442,5.443
	c-3.007,0-5.444-2.439-5.444-5.443c0-3.012,2.438-5.446,5.444-5.446C45.446,23.924,47.881,26.358,47.881,29.37z"/>
<path fill="none" stroke="#000000" stroke-width="4" stroke-miterlimit="10" d="M52.08,44.457c0-5.334-4.31-9.644-9.645-9.644
	c-5.323,0-9.64,4.31-9.64,9.644c0,5.32,4.316,9.639,9.64,9.639C47.771,54.096,52.08,49.777,52.08,44.457z"/>
<path fill="none" stroke="#000000" stroke-width="4" stroke-miterlimit="10" d="M10.831,29.37c0,3.004-2.433,5.443-5.441,5.443
	c-3.009,0-5.445-2.439-5.445-5.443c0-3.012,2.437-5.446,5.445-5.446C8.398,23.924,10.831,26.358,10.831,29.37z"/>
<path fill="none" stroke="#000000" stroke-width="4" stroke-miterlimit="10" d="M15.03,44.457c0-5.334-4.311-9.644-9.644-9.644
	c-5.324,0-9.641,4.31-9.641,9.644c0,5.32,4.316,9.639,9.641,9.639C10.719,54.096,15.03,49.777,15.03,44.457z"/>
<path fill="#FFFFFF" stroke="#000000" stroke-width="4" stroke-miterlimit="10" d="M37.617,45.849
	c0-7.624-6.157-13.775-13.776-13.775c-7.601,0-13.764,6.151-13.764,13.775c0,7.598,6.163,13.757,13.764,13.757
	C31.46,59.605,37.617,53.446,37.617,45.849z"/>
<rect x="1.732" y="1.812" fill="none" stroke="#000000" stroke-width="4" stroke-miterlimit="10" width="44.226" height="44.225"/>
</svg>
