<?xml version="1.0" encoding="utf-8"?>
<!-- Generator: Adobe Illustrator 16.0.0, SVG Export Plug-In . SVG Version: 6.00 Build 0)  -->
<!DOCTYPE svg PUBLIC "-//W3C//DTD SVG 1.1//EN" "http://www.w3.org/Graphics/SVG/1.1/DTD/svg11.dtd">
<svg version="1.1" id="Layer_1" xmlns="http://www.w3.org/2000/svg" xmlns:xlink="http://www.w3.org/1999/xlink" x="0px" y="0px"
	 width="48px" height="48px" viewBox="0 0 48 48" enable-background="new 0 0 48 48" xml:space="preserve">
<rect x="1.962" y="1.917" fill="none" stroke="#000000" stroke-width="4" stroke-miterlimit="10" width="44.121" height="44.12"/>
<path d="M41.55,33.231c0,4.477-3.632,8.107-8.107,8.107c-4.477,0-8.103-3.631-8.103-8.107s3.626-8.102,8.103-8.102
	C37.918,25.13,41.55,28.755,41.55,33.231z"/>
<rect x="32.488" y="22.767" width="1.907" height="20.929"/>
<rect x="22.976" y="32.28" width="20.931" height="1.904"/>
<polygon points="26.72,41.304 25.369,39.96 40.17,25.159 41.515,26.511 "/>
<polygon points="25.369,26.511 26.72,25.159 41.515,39.96 40.17,41.304 "/>
<path fill="#FFFFFF" d="M34.48,33.231c0,0.574-0.467,1.037-1.038,1.037c-0.573,0-1.032-0.463-1.032-1.037
	c0-0.572,0.459-1.031,1.032-1.031C34.014,32.2,34.48,32.659,34.48,33.231z"/>
<path d="M27.006,21.598c-1.845,5.348-7.683,8.188-13.022,6.347c-5.349-1.847-8.192-7.681-6.347-13.029
	c1.844-5.345,7.679-8.184,13.028-6.338C26.005,10.42,28.85,16.253,27.006,21.598z"/>
<rect x="16.113" y="5.036" transform="matrix(0.9454 0.326 -0.326 0.9454 6.8999 -4.6493)" width="2.414" height="26.448"/>
<rect x="16.115" y="5.034" transform="matrix(-0.3261 0.9453 -0.9453 -0.3261 40.2269 7.8357)" width="2.411" height="26.444"/>
<rect x="16.113" y="5.033" transform="matrix(0.4384 0.8988 -0.8988 0.4384 26.1387 -5.3126)" width="2.414" height="26.452"/>
<rect x="16.114" y="5.032" transform="matrix(-0.8997 0.4364 -0.4364 -0.8997 40.8717 27.1246)" width="2.412" height="26.451"/>
<path fill="#FFFFFF" d="M22.688,20.109c-1.021,2.96-4.258,4.542-7.216,3.522c-2.968-1.024-4.544-4.267-3.523-7.227
	c1.022-2.964,4.26-4.538,7.228-3.514C22.135,13.912,23.711,17.146,22.688,20.109z"/>
</svg>
