<?xml version="1.0" encoding="utf-8"?>
<!-- Generator: Adobe Illustrator 16.0.0, SVG Export Plug-In . SVG Version: 6.00 Build 0)  -->
<!DOCTYPE svg PUBLIC "-//W3C//DTD SVG 1.1//EN" "http://www.w3.org/Graphics/SVG/1.1/DTD/svg11.dtd">
<svg version="1.1" id="Layer_1" xmlns="http://www.w3.org/2000/svg" xmlns:xlink="http://www.w3.org/1999/xlink" x="0px" y="0px"
	 width="48px" height="48px" viewBox="0 0 48 48" enable-background="new 0 0 48 48" xml:space="preserve">
<rect x="8" y="4.583" fill="none" stroke="#000000" stroke-miterlimit="10" width="6.583" height="6.583"/>
<circle cx="12.427" cy="8.727" r="1.209"/>
<rect x="12.285" y="7.166" width="0.284" height="3.123"/>
<rect x="10.865" y="8.585" width="3.123" height="0.284"/>
<rect x="12.285" y="7.165" transform="matrix(0.7088 0.7054 -0.7054 0.7088 9.7745 -6.2249)" width="0.285" height="3.123"/>
<rect x="12.284" y="7.166" transform="matrix(-0.7071 0.7071 -0.7071 -0.7071 27.3851 6.1118)" width="0.285" height="3.123"/>
<circle fill="#FFFFFF" cx="12.427" cy="8.727" r="0.154"/>
<circle cx="10.156" cy="7.023" r="1.209"/>
<rect x="10.014" y="5.462" width="0.285" height="3.123"/>
<rect x="8.595" y="6.881" width="3.122" height="0.285"/>
<rect x="10.014" y="5.462" transform="matrix(0.7071 0.7071 -0.7071 0.7071 7.9412 -5.1244)" width="0.285" height="3.123"/>
<rect x="10.014" y="5.462" transform="matrix(-0.708 0.7062 -0.7062 -0.708 22.3068 4.8229)" width="0.285" height="3.123"/>
<circle fill="#FFFFFF" cx="10.156" cy="7.023" r="0.671"/>
</svg>
